<?xml version="1.0" standalone="no"?>
<!DOCTYPE svg PUBLIC "-//W3C//DTD SVG 20010904//EN"
 "http://www.w3.org/TR/2001/REC-SVG-20010904/DTD/svg10.dtd">
<svg version="1.0" xmlns="http://www.w3.org/2000/svg"
 width="512.000000pt" height="512.000000pt" viewBox="0 0 512.000000 512.000000"
 preserveAspectRatio="xMidYMid meet">
<metadata>
Created by potrace 1.15, written by Peter Selinger 2001-2017
</metadata>
<g transform="translate(0.000000,512.000000) scale(0.100000,-0.100000)"
fill="#FFFFFF" stroke="none">
<path d="M2226 5104 c-428 -55 -849 -228 -1211 -496 -143 -106 -397 -360 -503
-503 -273 -368 -443 -787 -497 -1225 -20 -163 -20 -478 0 -640 130 -1045 908
-1922 1925 -2168 239 -58 319 -67 620 -67 301 0 381 9 620 67 908 220 1648
960 1868 1868 58 239 67 319 67 620 0 301 -9 381 -67 620 -246 1017 -1123
1795 -2168 1925 -155 19 -502 18 -654 -1z m664 -269 c965 -148 1723 -866 1921
-1820 158 -761 -92 -1562 -657 -2105 -844 -812 -2130 -867 -3042 -131 -447
362 -738 874 -828 1461 -25 158 -25 481 -1 640 79 511 295 939 656 1301 397
397 880 620 1451 673 90 8 397 -4 500 -19z"/>
<path d="M2495 3371 c-16 -10 -292 -282 -612 -602 -637 -639 -614 -612 -581
-697 25 -67 117 -103 181 -71 12 6 259 248 550 538 l527 526 528 -526 c290
-290 537 -532 549 -538 64 -32 156 4 181 71 33 85 56 57 -586 701 -323 324
-599 595 -614 603 -37 19 -87 18 -123 -5z"/>
</g>
</svg>
